<svg width="63" height="63" viewBox="0 0 63 63" fill="none" xmlns="http://www.w3.org/2000/svg">
<g clip-path="url(#clip0)">
<path d="M0.102253 38.8659C0.168449 38.7058 0.265648 38.5604 0.388321 38.4381L16.1377 22.6887C16.659 22.1851 17.4899 22.1996 17.9935 22.7209C18.4849 23.2296 18.4849 24.0359 17.9935 24.5445L4.48316 38.0549L30.1887 38.0549C46.8525 38.036 60.3563 24.5321 60.3751 7.86852C60.3751 7.14368 60.9628 6.55603 61.6876 6.55603C62.4125 6.55603 63 7.14368 63 7.86852C62.9797 25.9813 48.3015 40.6595 30.1887 40.6798H4.48316L17.9908 54.1875C18.5122 54.6911 18.5266 55.522 18.023 56.0433C17.5193 56.5646 16.6884 56.579 16.1671 56.0754C16.1562 56.0648 16.1455 56.0541 16.135 56.0433L0.38562 40.2939C0.00960159 39.9189 -0.103352 39.3541 0.0995445 38.8633L0.102253 38.8659Z" fill="#2196F3"/>
<path d="M17.0646 56.4292C17.7894 56.4305 18.378 55.8439 18.3794 55.119C18.38 54.7696 18.2412 54.4343 17.9938 54.1875L3.1709 39.3673L17.9938 24.5471C18.4974 24.0258 18.4829 23.1949 17.9615 22.6913C17.4529 22.2 16.6466 22.2 16.1379 22.6913L0.388552 38.4407C-0.123795 38.9531 -0.123795 39.7839 0.388552 40.2965L16.1379 56.0459C16.3839 56.2913 16.7171 56.4291 17.0646 56.4292Z" fill="white"/>
<path d="M1.31495 40.6798H30.1887C48.3015 40.6595 62.9797 25.9813 63 7.86852C63 7.14368 62.4124 6.55603 61.6875 6.55603C60.9627 6.55603 60.375 7.14368 60.375 7.86852C60.3562 24.5321 46.8523 38.0361 30.1887 38.0548L1.31483 38.0548C0.589985 38.0548 0.00234222 38.6425 0.00234222 39.3673C0.00246429 40.0921 0.590107 40.6798 1.31495 40.6798Z" fill="white"/>
</g>
<defs>
<clipPath id="clip0">
<rect width="63" height="63" fill="white" transform="matrix(-1 0 0 1 63 0)"/>
</clipPath>
</defs>
</svg>
