<svg width="63" height="63" viewBox="0 0 63 63" fill="none" xmlns="http://www.w3.org/2000/svg">
<g clip-path="url(#clip0)">
<path d="M62.8977 38.8659C62.8316 38.7058 62.7344 38.5604 62.6117 38.4381L46.8623 22.6887C46.341 22.1851 45.5101 22.1996 45.0065 22.7209C44.5151 23.2296 44.5151 24.0359 45.0065 24.5445L58.5168 38.0549H32.8113C16.1475 38.036 2.64368 24.5321 2.62486 7.86852C2.62486 7.14368 2.03721 6.55603 1.31237 6.55603C0.587526 6.55603 0 7.14368 0 7.86852C0.0203019 25.9813 14.6985 40.6595 32.8113 40.6798H58.5168L45.0092 54.1875C44.4878 54.6911 44.4734 55.522 44.977 56.0433C45.4807 56.5646 46.3116 56.579 46.8329 56.0754C46.8438 56.0648 46.8545 56.0541 46.865 56.0433L62.6144 40.2939C62.9904 39.9189 63.1034 39.3541 62.9005 38.8633L62.8977 38.8659Z" fill="#2196F3"/>
<path d="M45.9354 56.4292C45.2106 56.4305 44.622 55.8439 44.6206 55.119C44.62 54.7696 44.7588 54.4343 45.0062 54.1875L59.8291 39.3673L45.0062 24.5471C44.5026 24.0258 44.5171 23.1949 45.0385 22.6913C45.5471 22.2 46.3534 22.2 46.8621 22.6913L62.6114 38.4407C63.1238 38.9531 63.1238 39.7839 62.6114 40.2965L46.8621 56.0459C46.6161 56.2913 46.2829 56.4291 45.9354 56.4292Z" fill="white"/>
<path d="M61.6851 40.6798H32.8113C14.6985 40.6595 0.0203019 25.9813 0 7.86852C0 7.14368 0.587649 6.55603 1.31249 6.55603C2.03733 6.55603 2.62498 7.14368 2.62498 7.86852C2.6438 24.5321 16.1477 38.0361 32.8113 38.0548H61.6852C62.41 38.0548 62.9977 38.6425 62.9977 39.3673C62.9975 40.0921 62.4099 40.6798 61.6851 40.6798Z" fill="white"/>
</g>
<defs>
<clipPath id="clip0">
<rect width="63" height="63" fill="white"/>
</clipPath>
</defs>
</svg>
