<svg width="27" height="28" viewBox="0 0 27 28" fill="none" xmlns="http://www.w3.org/2000/svg">
<g clip-path="url(#clip0)">
<path d="M19.4633 0.340546H7.22402C3.24063 0.340546 0 3.58118 0 7.56457V19.8041C0 23.7873 3.24063 27.0279 7.22402 27.0279H19.4635C23.4467 27.0279 26.6874 23.7873 26.6874 19.8041V7.56457C26.6874 3.58118 23.4467 0.340546 19.4633 0.340546V0.340546ZM25.1228 19.8041C25.1228 22.9246 22.584 25.4634 19.4633 25.4634H7.22402C4.10332 25.4634 1.56453 22.9246 1.56453 19.8041V7.56457C1.56453 4.44386 4.10332 1.90507 7.22402 1.90507H19.4635C22.584 1.90507 25.1228 4.44386 25.1228 7.56457V19.8041Z" fill="white"/>
<path d="M13.3436 6.38708C9.31987 6.38708 6.04646 9.6605 6.04646 13.6842C6.04646 17.7079 9.31987 20.9813 13.3436 20.9813C17.3673 20.9813 20.6407 17.7079 20.6407 13.6842C20.6407 9.6605 17.3673 6.38708 13.3436 6.38708ZM13.3436 19.4168C10.1828 19.4168 7.61098 16.8452 7.61098 13.6842C7.61098 10.5234 10.1828 7.95161 13.3436 7.95161C16.5046 7.95161 19.0762 10.5234 19.0762 13.6842C19.0762 16.8452 16.5046 19.4168 13.3436 19.4168Z" fill="white"/>
<path d="M20.8154 3.79556C19.6264 3.79556 18.6592 4.76291 18.6592 5.95177C18.6592 7.14085 19.6264 8.10819 20.8154 8.10819C22.0045 8.10819 22.9718 7.14085 22.9718 5.95177C22.9718 4.7627 22.0045 3.79556 20.8154 3.79556ZM20.8154 6.54346C20.4893 6.54346 20.2237 6.27796 20.2237 5.95177C20.2237 5.62539 20.4893 5.36009 20.8154 5.36009C21.1418 5.36009 21.4073 5.62539 21.4073 5.95177C21.4073 6.27796 21.1418 6.54346 20.8154 6.54346Z" fill="white"/>
</g>
<defs>
<clipPath id="clip0">
<rect width="26.6874" height="26.6874" fill="white" transform="translate(0 0.340546)"/>
</clipPath>
</defs>
</svg>
