<svg width="28" height="28" viewBox="0 0 28 28" fill="none" xmlns="http://www.w3.org/2000/svg">
<g clip-path="url(#clip0)">
<path d="M24.2479 3.60803H4.05071C2.26135 3.60803 0.805588 5.0638 0.805588 6.85311V20.5156C0.805588 22.305 2.26135 23.7607 4.05071 23.7607H24.2479C26.0373 23.7607 27.493 22.305 27.493 20.5156V6.85311C27.493 5.0638 26.0373 3.60803 24.2479 3.60803ZM22.693 4.69726L14.1419 11.6093L5.59087 4.69726H22.693ZM23.1212 22.6714H5.16272V9.95135L13.8003 16.9094C13.9997 17.07 14.2842 17.07 14.4836 16.9094L23.1211 9.95135V22.6714H23.1212ZM26.4037 20.5156C26.4037 21.7043 25.4366 22.6714 24.2479 22.6714H24.2105V8.81322C24.2105 8.60353 24.0901 8.41249 23.9009 8.32196C23.7116 8.23136 23.4874 8.25758 23.3242 8.38909L14.1419 15.7859L4.9597 8.38909C4.79634 8.25758 4.572 8.23136 4.38295 8.32196C4.19374 8.41249 4.07339 8.60353 4.07339 8.81322V22.6714H4.05066C2.86198 22.6714 1.89487 21.7043 1.89487 20.5156V6.85311C1.89487 5.72588 2.76471 4.79849 3.86833 4.7056L13.7996 12.7333C13.8994 12.814 14.0207 12.8544 14.1419 12.8544C14.2632 12.8544 14.3845 12.814 14.4843 12.7333L24.4168 4.70451C25.5268 4.79103 26.4037 5.72129 26.4037 6.85305V20.5156Z" fill="white"/>
</g>
<defs>
<clipPath id="clip0">
<rect width="26.6874" height="26.6874" fill="white" transform="translate(0.805588 0.340546)"/>
</clipPath>
</defs>
</svg>
