<svg width="60" height="60" viewBox="0 0 60 60" fill="none" xmlns="http://www.w3.org/2000/svg">
<rect width="60" height="60" rx="30" fill="url(#paint0_linear)"/>
<g clip-path="url(#clip0)">
<path d="M40.0034 18.9916C39.6774 18.5929 39.1892 18.3734 38.6284 18.3734C38.3236 18.3734 38.0007 18.4375 37.6688 18.5644L15.0784 27.1878C13.8796 27.6453 13.7181 28.3319 13.7285 28.7004C13.7389 29.069 13.9391 29.7454 15.1619 30.1345C15.1693 30.1367 15.1766 30.1389 15.1839 30.141L19.8698 31.4819L22.4039 38.7284C22.7494 39.7163 23.525 40.33 24.4282 40.33C24.9977 40.33 25.5578 40.0913 26.0481 39.6401L28.9464 36.9714L33.1504 40.3564C33.1508 40.3568 33.1514 40.3571 33.1518 40.3575L33.1917 40.3896C33.1953 40.3925 33.1992 40.3955 33.2029 40.3984C33.6702 40.7608 34.1802 40.9522 34.6784 40.9524H34.6786C35.6521 40.9524 36.4272 40.2318 36.653 39.1169L40.3544 20.8401C40.5031 20.1065 40.3785 19.4501 40.0034 18.9916ZM21.4374 31.2272L30.4778 26.6088L24.8486 32.5902C24.7564 32.6881 24.691 32.8081 24.6588 32.9386L23.5734 37.3353L21.4374 31.2272ZM24.9887 38.4898C24.9512 38.5242 24.9136 38.5549 24.8759 38.5832L25.8829 34.5045L27.7148 35.9797L24.9887 38.4898ZM38.8219 20.5296L35.1205 38.8066C35.0848 38.9815 34.971 39.3885 34.6784 39.3885C34.5339 39.3885 34.3523 39.3097 34.1664 39.1666L29.4027 35.331C29.4021 35.3304 29.4013 35.3297 29.4005 35.3293L26.5661 33.0469L34.7065 24.397C34.9672 24.1201 34.9908 23.696 34.7625 23.3918C34.5341 23.0876 34.1201 22.9919 33.7815 23.1649L20.3926 30.005L15.6431 28.6461L38.2265 20.0253C38.4173 19.9524 38.5505 19.9371 38.6284 19.9371C38.6763 19.9371 38.7614 19.9428 38.793 19.9817C38.8345 20.0324 38.8874 20.2053 38.8219 20.5296Z" fill="white"/>
</g>
<defs>
<linearGradient id="paint0_linear" x1="60" y1="60" x2="9.63208" y2="67.2176" gradientUnits="userSpaceOnUse">
<stop stop-color="#005BFF"/>
<stop offset="1" stop-color="#FF1CA9"/>
</linearGradient>
<clipPath id="clip0">
<rect width="26.6874" height="26.6874" fill="white" transform="translate(13.7318 16.3406)"/>
</clipPath>
</defs>
</svg>
